<svg id="visual" viewBox="0 0 900 600" width="900" height="600" xmlns="http://www.w3.org/2000/svg" xmlns:xlink="http://www.w3.org/1999/xlink" version="1.1"><rect width="900" height="600" fill="#e9fff6"></rect><g><g transform="translate(453 241)"><path d="M38.2 -12.4C42.7 1.4 34.8 19.3 21.8 28.3C8.8 37.3 -9.3 37.5 -22.3 28.5C-35.4 19.6 -43.5 1.4 -38.9 -12.5C-34.3 -26.5 -17.2 -36.3 -0.2 -36.3C16.8 -36.2 33.7 -26.3 38.2 -12.4Z" stroke="#d4f6e9" fill="none" stroke-width="20"></path></g><g transform="translate(894 426)"><path d="M35.3 -13.1C39.5 1.6 32.5 18.2 19.5 27.9C6.6 37.5 -12.2 40.1 -23.8 31.9C-35.3 23.7 -39.7 4.7 -34.5 -11.3C-29.4 -27.2 -14.7 -40.1 0.4 -40.3C15.5 -40.4 31.1 -27.8 35.3 -13.1Z" stroke="#d4f6e9" fill="none" stroke-width="20"></path></g><g transform="translate(215 313)"><path d="M38.7 -13C43.7 3 37 22.4 23.7 31.8C10.4 41.3 -9.4 40.8 -22.9 31.1C-36.4 21.4 -43.5 2.5 -38.6 -13.3C-33.7 -29.1 -16.9 -41.8 0 -41.8C16.8 -41.8 33.6 -29.1 38.7 -13Z" stroke="#d4f6e9" fill="none" stroke-width="20"></path></g><g transform="translate(293 470)"><path d="M30 -9.1C34.8 5 31.7 22.2 20.5 31C9.3 39.8 -10 40.1 -21.4 31.3C-32.9 22.6 -36.4 4.8 -31.5 -9.4C-26.6 -23.6 -13.3 -34.3 -0.3 -34.2C12.6 -34.1 25.2 -23.2 30 -9.1Z" stroke="#d4f6e9" fill="none" stroke-width="20"></path></g><g transform="translate(884 29)"><path d="M38.1 -11.6C43.5 4.1 37.8 24.2 25.1 33.1C12.5 41.9 -7.3 39.5 -21.2 29.3C-35.2 19.2 -43.4 1.2 -38.9 -13.3C-34.4 -27.9 -17.2 -39 -0.4 -38.8C16.4 -38.7 32.7 -27.3 38.1 -11.6Z" stroke="#d4f6e9" fill="none" stroke-width="20"></path></g><g transform="translate(42 558)"><path d="M23.3 -6.5C26.9 3.4 24.1 16.4 16.4 21.8C8.6 27.2 -4 25.1 -13.2 18.4C-22.4 11.7 -28.1 0.3 -25.3 -8.4C-22.5 -17.2 -11.3 -23.5 -0.7 -23.3C9.9 -23 19.8 -16.3 23.3 -6.5Z" stroke="#d4f6e9" fill="none" stroke-width="20"></path></g><g transform="translate(633 243)"><path d="M28.6 -9.2C32.2 1.8 26.9 15.8 16.6 23.3C6.4 30.9 -8.9 32.1 -19.3 24.9C-29.6 17.8 -35 2.3 -31 -9.3C-27 -20.9 -13.5 -28.6 -0.5 -28.4C12.5 -28.3 25 -20.2 28.6 -9.2Z" stroke="#d4f6e9" fill="none" stroke-width="20"></path></g><g transform="translate(276 174)"><path d="M24.8 -6.8C28.3 3 24.9 16.3 16.7 22C8.4 27.8 -4.6 26 -13.7 19.3C-22.8 12.6 -28 0.9 -25 -8C-22.1 -16.9 -11 -22.9 -0.2 -22.9C10.6 -22.8 21.2 -16.6 24.8 -6.8Z" stroke="#d4f6e9" fill="none" stroke-width="20"></path></g><g transform="translate(396 537)"><path d="M35.5 -13.4C39.7 1.4 32.4 18 20.4 26.4C8.3 34.7 -8.5 34.8 -21 26.3C-33.6 17.8 -41.8 0.8 -37.6 -14.1C-33.4 -28.9 -16.7 -41.6 -0.5 -41.4C15.7 -41.2 31.3 -28.3 35.5 -13.4Z" stroke="#d4f6e9" fill="none" stroke-width="20"></path></g><g transform="translate(858 252)"><path d="M25.3 -7.5C29.1 3.3 25.8 17.2 17.1 23.5C8.5 29.7 -5.6 28.4 -14.4 21.6C-23.2 14.8 -26.7 2.5 -23.4 -7.7C-20.2 -18 -10.1 -26.1 0.4 -26.2C10.8 -26.3 21.6 -18.4 25.3 -7.5Z" stroke="#d4f6e9" fill="none" stroke-width="20"></path></g><g transform="translate(438 368)"><path d="M33.4 -12C38 3.4 32.9 20.8 21.4 29C10 37.2 -7.8 36.1 -20.3 27.2C-32.8 18.3 -40.2 1.4 -35.9 -13.4C-31.7 -28.3 -15.8 -41.1 -0.7 -40.9C14.4 -40.6 28.8 -27.3 33.4 -12Z" stroke="#d4f6e9" fill="none" stroke-width="20"></path></g><g transform="translate(865 572)"><path d="M26.6 -8.2C30.2 2.6 26.1 16.4 16.7 23.4C7.3 30.3 -7.3 30.3 -16.7 23.4C-26.1 16.5 -30.1 2.7 -26.5 -8.2C-22.8 -19 -11.4 -26.9 0 -26.9C11.4 -27 22.9 -19.1 26.6 -8.2Z" stroke="#d4f6e9" fill="none" stroke-width="20"></path></g><g transform="translate(208 59)"><path d="M35.9 -12.1C40.6 2.9 34.5 21 22.4 29.5C10.4 37.9 -7.7 36.7 -20.3 27.6C-33 18.5 -40.1 1.6 -35.8 -12.8C-31.6 -27.2 -15.8 -39.1 -0.1 -39.1C15.6 -39.1 31.1 -27.1 35.9 -12.1Z" stroke="#d4f6e9" fill="none" stroke-width="20"></path></g><g transform="translate(428 117)"><path d="M27.8 -9.2C31 1 25.3 13.9 16 20.2C6.8 26.5 -6 26.1 -15.2 19.7C-24.3 13.3 -30 0.9 -26.9 -9.1C-23.7 -19.1 -11.9 -26.7 0.2 -26.8C12.3 -26.8 24.5 -19.4 27.8 -9.2Z" stroke="#d4f6e9" fill="none" stroke-width="20"></path></g><g transform="translate(114 206)"><path d="M33 -9.7C38.1 5 34.3 23.6 22.3 32.8C10.3 42 -10.1 41.9 -22.6 32.5C-35.1 23.1 -39.8 4.3 -34.7 -10.3C-29.7 -25 -14.8 -35.5 -0.4 -35.4C13.9 -35.2 27.9 -24.4 33 -9.7Z" stroke="#d4f6e9" fill="none" stroke-width="20"></path></g><g transform="translate(609 373)"><path d="M27.1 -8.2C31.1 3.6 27.7 18.5 18.6 24.9C9.5 31.4 -5.2 29.4 -15 22C-24.8 14.5 -29.7 1.7 -26.4 -9.1C-23.1 -19.9 -11.5 -28.6 0 -28.6C11.5 -28.6 23.1 -19.9 27.1 -8.2Z" stroke="#d4f6e9" fill="none" stroke-width="20"></path></g></g></svg>