<svg id="visual" viewBox="0 0 900 600" width="900" height="600" xmlns="http://www.w3.org/2000/svg" xmlns:xlink="http://www.w3.org/1999/xlink" version="1.1"><path d="M0 43L30 45C60 47 120 51 180 47C240 43 300 31 360 29C420 27 480 35 540 41C600 47 660 51 720 57C780 63 840 71 870 75L900 79L900 0L870 0C840 0 780 0 720 0C660 0 600 0 540 0C480 0 420 0 360 0C300 0 240 0 180 0C120 0 60 0 30 0L0 0Z" fill="#badbdd"></path><path d="M0 67L30 79C60 91 120 115 180 114C240 113 300 87 360 84C420 81 480 101 540 104C600 107 660 93 720 101C780 109 840 139 870 154L900 169L900 77L870 73C840 69 780 61 720 55C660 49 600 45 540 39C480 33 420 25 360 27C300 29 240 41 180 45C120 49 60 45 30 43L0 41Z" fill="#a4d0d3"></path><path d="M0 115L30 134C60 153 120 191 180 198C240 205 300 181 360 175C420 169 480 181 540 180C600 179 660 165 720 182C780 199 840 247 870 271L900 295L900 167L870 152C840 137 780 107 720 99C660 91 600 105 540 102C480 99 420 79 360 82C300 85 240 111 180 112C120 113 60 89 30 77L0 65Z" fill="#8dbec2"></path><path d="M0 175L30 192C60 209 120 243 180 249C240 255 300 233 360 230C420 227 480 243 540 241C600 239 660 219 720 230C780 241 840 283 870 304L900 325L900 293L870 269C840 245 780 197 720 180C660 163 600 177 540 178C480 179 420 167 360 173C300 179 240 203 180 196C120 189 60 151 30 132L0 113Z" fill="#7badb2"></path><path d="M0 187L30 209C60 231 120 275 180 283C240 291 300 263 360 262C420 261 480 287 540 291C600 295 660 277 720 281C780 285 840 311 870 324L900 337L900 323L870 302C840 281 780 239 720 228C660 217 600 237 540 239C480 241 420 225 360 228C300 231 240 253 180 247C120 241 60 207 30 190L0 173Z" fill="#7badb2"></path><path d="M0 343L30 359C60 375 120 407 180 407C240 407 300 375 360 376C420 377 480 411 540 430C600 449 660 453 720 455C780 457 840 457 870 457L900 457L900 335L870 322C840 309 780 283 720 279C660 275 600 293 540 289C480 285 420 259 360 260C300 261 240 289 180 281C120 273 60 229 30 207L0 185Z" fill="#8dbec2"></path><path d="M0 493L30 499C60 505 120 517 180 526C240 535 300 541 360 549C420 557 480 567 540 561C600 555 660 533 720 531C780 529 840 547 870 556L900 565L900 455L870 455C840 455 780 455 720 453C660 451 600 447 540 428C480 409 420 375 360 374C300 373 240 405 180 405C120 405 60 373 30 357L0 341Z" fill="#a4d0d3"></path><path d="M0 601L30 601C60 601 120 601 180 601C240 601 300 601 360 601C420 601 480 601 540 601C600 601 660 601 720 601C780 601 840 601 870 601L900 601L900 563L870 554C840 545 780 527 720 529C660 531 600 553 540 559C480 565 420 555 360 547C300 539 240 533 180 524C120 515 60 503 30 497L0 491Z" fill="#badbdd"></path></svg>